<?xml version="1.0" standalone="no"?>
<!DOCTYPE svg PUBLIC "-//W3C//DTD SVG 20010904//EN"
 "http://www.w3.org/TR/2001/REC-SVG-20010904/DTD/svg10.dtd">
<svg version="1.0" xmlns="http://www.w3.org/2000/svg"
 width="306.000000pt" height="306.000000pt" viewBox="0 0 306.000000 306.000000"
 preserveAspectRatio="xMidYMid meet">
<metadata>
Created by potrace 1.14, written by Peter Selinger 2001-2017
</metadata>
<g transform="translate(0.000000,306.000000) scale(0.100000,-0.100000)"
fill="#000000" stroke="none">
<path d="M1349 2464 c-192 -34 -361 -124 -505 -268 -147 -147 -234 -314 -269
-513 -29 -165 -17 -223 47 -223 41 0 55 27 62 121 15 217 106 403 269 555 166
154 333 219 567 219 234 0 401 -65 567 -219 122 -114 191 -224 239 -383 24
-77 27 -106 28 -228 0 -117 -3 -153 -22 -220 -101 -353 -402 -599 -762 -621
-166 -11 -338 31 -482 117 -105 62 -104 67 37 209 l117 117 70 -36 c69 -35 74
-36 182 -36 107 0 114 1 181 34 89 44 305 250 305 291 0 16 -18 42 -52 77
l-51 52 106 109 c112 114 115 122 79 165 -31 36 -60 22 -169 -85 l-103 -102
-80 79 c-44 44 -80 84 -80 89 0 6 45 56 100 111 59 61 100 110 100 122 0 33
-37 58 -79 54 -8 0 -60 -46 -115 -101 l-102 -100 -49 50 c-73 74 -79 72 -216
-67 -167 -171 -194 -227 -187 -388 3 -79 8 -101 36 -157 18 -36 32 -69 32 -74
0 -5 -50 -59 -111 -119 -146 -144 -174 -205 -132 -292 32 -68 200 -163 369
-210 87 -24 117 -27 244 -27 202 0 321 32 495 133 103 60 263 218 320 316 158
272 187 556 85 838 -91 251 -316 476 -567 567 -161 58 -342 74 -504 44z"/>
</g>
</svg>
